<?xml version="1.0" encoding="iso-8859-1"?>
<svg width="460" height="460" xmlns="http://www.w3.org/2000/svg" xmlns:svg="http://www.w3.org/2000/svg" xmlns:xlink="http://www.w3.org/1999/xlink">
 <g>
  <title>Layer 1</title>
  <g id="svg_1">
   <path id="svg_4" fill="#003f7f" d="m429.613,200.257c2.31,11.68 17.39,22.39 17.39,34.74c0,12.36 -15.08,23.07 -17.39,34.75c-2.38,12.03 7.41,27.68 2.82,38.75c-4.67,11.26 -22.71,15.39 -29.41,25.4c-6.75,10.09 -3.71,28.32 -12.26,36.87c-8.55,8.55 -26.78,5.5 -36.87,12.26c-10.01,6.7 -14.14,24.73 -25.4,29.4c-11.07,4.59 -26.72,-5.19 -38.75,-2.81c-11.68,2.31 -22.39,17.38 -34.74,17.38l-20,-192l20,-192c12.35,0 23.06,15.08 34.74,17.39c12.03,2.38 27.68,-7.41 38.75,-2.82c11.26,4.67 15.39,22.71 25.4,29.41c10.09,6.75 28.32,3.71 36.87,12.26s5.51,26.78 12.26,36.87c6.7,10.01 24.74,14.14 29.41,25.4c4.59,11.07 -5.2,26.72 -2.82,38.75z"/>
   <path id="svg_5" fill="#7f00ff" d="m255.003,40.997l0,384c-12.36,0 -23.07,-15.07 -34.75,-17.38c-12.03,-2.38 -27.68,7.4 -38.75,2.81c-11.26,-4.67 -15.39,-22.7 -25.4,-29.4c-10.09,-6.76 -28.32,-3.71 -36.87,-12.26c-8.55,-8.56 -5.5,-26.79 -12.26,-36.87c-6.7,-10.01 -24.73,-14.14 -29.4,-25.4c-4.59,-11.07 5.19,-26.72 2.81,-38.75c-2.31,-11.68 -17.38,-22.39 -17.38,-34.75c0,-12.35 15.07,-23.06 17.38,-34.74c2.38,-12.03 -7.4,-27.68 -2.81,-38.75c4.67,-11.26 22.7,-15.39 29.4,-25.4c6.76,-10.09 3.71,-28.32 12.26,-36.87c8.56,-8.55 26.79,-5.51 36.87,-12.26c10.01,-6.7 14.14,-24.74 25.4,-29.41c11.07,-4.59 26.72,5.2 38.75,2.82c11.68,-2.31 22.39,-17.39 34.75,-17.39z"/>
   <path id="svg_6" fill="#ffffff" d="m255.333,72.058c-89.801,0 -162.608,72.809 -162.608,162.609s72.808,162.608 162.608,162.608l20.326,-162.608l-20.326,-162.609z"/>
   <path id="svg_7" fill="#ffffff" d="m255.333,72.058l0,325.217c89.801,0 162.608,-72.807 162.608,-162.608s-72.807,-162.609 -162.608,-162.609z"/>
   <path id="svg_8" fill="#FFFFFF" d="m255.333,101.058c-73.233,0 -132.608,59.376 -132.608,132.609s59.375,132.608 132.608,132.608l16.576,-132.608l-16.576,-132.609z"/>
   <path id="svg_9" fill="#ffffff" d="m255.333,101.058l0,265.217c73.233,0 132.608,-59.375 132.608,-132.608s-59.375,-132.609 -132.608,-132.609z"/>
  </g>
  <g id="svg_14"/>
  <g id="svg_15"/>
  <g id="svg_16"/>
  <g id="svg_17"/>
  <g id="svg_18"/>
  <g id="svg_19"/>
  <g id="svg_20"/>
  <g id="svg_21"/>
  <g id="svg_22"/>
  <g id="svg_23"/>
  <g id="svg_24"/>
  <g id="svg_25"/>
  <g id="svg_26"/>
  <g id="svg_27"/>
  <g id="svg_28"/>

 </g>
</svg>
